<?xml version="1.0" standalone="no"?>
<!DOCTYPE svg PUBLIC "-//W3C//DTD SVG 20010904//EN"
 "http://www.w3.org/TR/2001/REC-SVG-20010904/DTD/svg10.dtd">
<svg version="1.0" xmlns="http://www.w3.org/2000/svg"
 width="350.000000pt" height="350.000000pt" viewBox="0 0 350.000000 350.000000"
 preserveAspectRatio="xMidYMid meet">
<metadata>
Created by potrace 1.11, written by Peter Selinger 2001-2013
</metadata>
<g transform="translate(0.000000,350.000000) scale(0.100000,-0.100000)"
fill="#000000" stroke="none">
<path d="M1496 3405 c-358 -58 -669 -218 -926 -475 -140 -140 -229 -263 -315
-435 -71 -142 -113 -262 -147 -418 -19 -89 -22 -132 -22 -327 0 -195 3 -238
22 -327 50 -230 151 -462 279 -643 87 -122 271 -306 393 -393 181 -128 413
-229 643 -279 89 -19 132 -22 327 -22 195 0 238 3 327 22 230 50 462 151 643
279 122 87 306 271 393 393 128 181 229 413 279 643 19 89 22 132 22 327 0
195 -3 238 -22 327 -50 230 -151 462 -279 643 -87 122 -271 306 -393 393 -179
127 -414 229 -638 278 -129 28 -453 35 -586 14z m804 -794 c0 -25 -39 -66
-270 -287 -149 -143 -277 -259 -285 -259 -15 0 -530 488 -546 517 -5 9 -9 26
-9 37 0 21 1 21 555 21 l555 0 0 -29z m-699 -648 c69 -68 134 -123 144 -123
10 0 73 53 139 118 67 64 147 142 179 172 l57 54 0 -657 0 -657 -375 0 -375 0
0 657 0 657 52 -49 c29 -28 110 -105 179 -172z"/>
</g>
</svg>
